<?xml version="1.0" encoding="UTF-8" standalone="no"?>
<!-- Created with Inkscape (http://www.inkscape.org/) -->

<svg
   width="450"
   height="450"
   viewBox="0 0 450 450"
   version="1.1"
   id="svg5"
   xml:space="preserve"
   sodipodi:docname="logo.svg"
   inkscape:version="1.2.1 (9c6d41e410, 2022-07-14, custom)"
   xmlns:inkscape="http://www.inkscape.org/namespaces/inkscape"
   xmlns:sodipodi="http://sodipodi.sourceforge.net/DTD/sodipodi-0.dtd"
   xmlns:xlink="http://www.w3.org/1999/xlink"
   xmlns="http://www.w3.org/2000/svg"
   xmlns:svg="http://www.w3.org/2000/svg"><sodipodi:namedview
     id="namedview7"
     pagecolor="#444444"
     bordercolor="#000000"
     borderopacity="0.25"
     inkscape:showpageshadow="2"
     inkscape:pageopacity="0"
     inkscape:pagecheckerboard="true"
     inkscape:deskcolor="#444444"
     inkscape:document-units="px"
     showgrid="false"
     showborder="true"
     shape-rendering="auto"
     inkscape:zoom="1"
     inkscape:cx="144.5"
     inkscape:cy="204"
     inkscape:window-width="1920"
     inkscape:window-height="1014"
     inkscape:window-x="0"
     inkscape:window-y="0"
     inkscape:window-maximized="1"
     inkscape:current-layer="layer4"
     showguides="true" /><defs
     id="defs2"><linearGradient
       id="linearGradient1184"
       inkscape:swatch="solid"><stop
         style="stop-color:#212121;stop-opacity:1;"
         offset="0"
         id="stop1182" /></linearGradient></defs><g
     inkscape:label="Layer 1"
     inkscape:groupmode="layer"
     id="layer1"
     style="display:none"><image
       width="961.46075"
       height="1033.7845"
       preserveAspectRatio="none"
       xlink:href="samo.png"
       id="image17"
       x="-23.055765"
       y="55.029922"
       inkscape:label="Doggo"
       style="display:inline"
       transform="rotate(-5)" /></g><g
     inkscape:groupmode="layer"
     id="layer4"
     inkscape:label="work"
     style="display:inline"
     transform="matrix(0.80812945,0,0,0.80812945,-47.461607,-51.988466)"><path
       style="display:inline;fill:none;fill-opacity:1;stroke:#ffffff;stroke-width:9.827;stroke-linecap:round;stroke-linejoin:round;stroke-dasharray:none;stroke-opacity:1;paint-order:normal"
       d="m 456.64103,407.1149 c 29.43722,-18.30729 40.60435,-36.80682 49.89742,-61.52168 9.21139,-24.49763 11.29147,-44.18828 2.97266,-78.46027 l -10.7386,-2.34991 15.59742,3.10644 c 20.6088,4.10452 -5.84027,-33.27656 -10.10025,-49.60388 -6.99358,-26.80446 -14.67339,-53.5799 -25.31798,-79.15492 -8.21546,-19.73871 -11.37121,-45.702074 -29.57515,-56.914872 -11.08119,-6.825507 -28.02782,-7.426036 -39.04076,-0.490955 -12.95341,8.157032 -16.96618,36.965457 -19.32122,41.661037 -2.34772,4.68099 -6.15621,8.78187 -19.23421,8.69107 -7.03514,-0.0489 -8.44639,-3.40328 -34.61209,-3.40322 -26.16571,5e-5 -27.57691,3.35454 -34.61208,3.40344 -13.078,0.0908 -16.8865,-4.0103 -19.23422,-8.69128 -2.35505,-4.69559 -6.36984,-33.504145 -19.32375,-41.661046 -11.01311,-6.934806 -27.95957,-6.334551 -39.04076,0.490955 -18.20394,11.2128 -21.3597,37.176171 -29.57516,56.914881 -10.64459,25.57502 -18.32441,52.35045 -25.31798,79.15491 -4.25998,16.32732 -30.78382,53.25511 -10.10025,49.60388 l 17.59742,-3.10644 -12.7386,2.34991 c -8.31882,34.27199 -6.23904,53.96276 2.97266,78.46027 9.29357,24.71524 20.46274,43.21439 49.89996,61.52168 l -22.42582,-16.86762 c -43.41991,48.80432 -52.95158,71.9401 -15.52426,75.52682 40.96165,70.94767 145.6135,143.08105 157.42297,143.08105 11.80946,0 116.47386,-72.15515 157.42296,-143.08105 34.95013,-3.48916 32.4244,-24.31784 -15.54719,-75.50414 z"
       id="path1162"
       sodipodi:nodetypes="caccsaaaasszssaaaasccaccczccc"
       inkscape:label="StckR" /><path
       style="display:inline;fill:#ffffff;fill-opacity:1;stroke:#000000;stroke-width:1.89;stroke-linecap:round;stroke-linejoin:round;stroke-dasharray:none;stroke-opacity:1;paint-order:normal"
       d="m 456.64103,407.1149 c 29.43722,-18.30729 40.60435,-36.80682 49.89742,-61.52168 9.21139,-24.49763 11.29147,-44.18828 2.97266,-78.46027 l -10.7386,-2.34991 15.59742,3.10644 c 20.6088,4.10452 -5.84027,-33.27656 -10.10025,-49.60388 -6.99358,-26.80446 -14.67339,-53.5799 -25.31798,-79.15492 -8.21546,-19.73871 -11.37121,-45.702074 -29.57515,-56.914872 -11.08119,-6.825507 -28.02782,-7.426036 -39.04076,-0.490955 -12.95341,8.157032 -16.96618,36.965457 -19.32122,41.661037 -2.34772,4.68099 -6.15621,8.78187 -19.23421,8.69107 -7.03514,-0.0489 -8.44639,-3.40328 -34.61209,-3.40322 -26.16571,5e-5 -27.57691,3.35454 -34.61208,3.40344 -13.078,0.0908 -16.8865,-4.0103 -19.23422,-8.69128 -2.35505,-4.69559 -6.36984,-33.504145 -19.32375,-41.661046 -11.01311,-6.934806 -27.95957,-6.334551 -39.04076,0.490955 -18.20394,11.2128 -21.3597,37.176171 -29.57516,56.914881 -10.64459,25.57502 -18.32441,52.35045 -25.31798,79.15491 -4.25998,16.32732 -30.78382,53.25511 -10.10025,49.60388 l 17.59742,-3.10644 -12.7386,2.34991 c -8.31882,34.27199 -6.23904,53.96276 2.97266,78.46027 9.29357,24.71524 20.46274,43.21439 49.89996,61.52168 l -22.42582,-16.86762 c -43.41991,48.80432 -52.95158,71.9401 -15.52426,75.52682 40.96165,70.94767 145.6135,143.08105 157.42297,143.08105 11.80946,0 116.47386,-72.15515 157.42296,-143.08105 34.95013,-3.48916 32.4244,-24.31784 -15.54719,-75.50414 z"
       id="path261"
       sodipodi:nodetypes="caccsaaaasszssaaaasccaccczccc"
       inkscape:label="fur" /><path
       style="display:inline;fill:#ffd2f3;fill-opacity:1;stroke:none;stroke-width:0.755906;stroke-linecap:round;stroke-linejoin:round;stroke-dasharray:none;stroke-opacity:1"
       d="m 233.81079,91.53605 c 7.32722,-7.463411 18.27543,-5.349011 23.02391,2.56976 4.74849,7.91876 10.4914,28.92983 7.87331,36.62646 -2.61809,7.69664 -19.01751,9.65368 -34.81648,9.6264 -15.79897,-0.0273 -15.37748,-7.29831 -15.06317,-13.2096 0.3143,-5.9113 11.65522,-28.14961 18.98243,-35.61302 z m 206.71416,-0.7109 c -7.32722,-7.463411 -18.27543,-5.349011 -23.02391,2.56976 -4.74849,7.91877 -10.4914,28.92983 -7.87331,36.62647 2.61809,7.69663 19.01751,9.65367 34.81648,9.62639 15.79897,-0.0273 13.37748,-7.2983 13.06317,-13.2096 -0.3143,-5.91129 -9.65522,-28.14961 -16.98243,-35.61302 z"
       id="path7399"
       sodipodi:nodetypes="ssssssssssss"
       inkscape:label="ears" /><path
       style="display:inline;fill:#101010;fill-opacity:1;stroke:none;stroke-width:0.755906;stroke-linecap:round;stroke-linejoin:round;stroke-dasharray:none;stroke-opacity:1"
       d="m 306.79307,248.37347 c 0,-18.89765 60.74961,-18.90151 60.74961,0 0,18.90151 -60.74961,18.89765 -60.74961,0 z"
       id="path511"
       sodipodi:nodetypes="zzz"
       inkscape:label="nose" /><path
       style="display:inline;fill:#101010;fill-opacity:1;stroke:none;stroke-width:0.755906;stroke-linecap:round;stroke-linejoin:round;stroke-dasharray:none;stroke-opacity:1"
       d="m 284.98468,287.97505 c 13.29574,4.07309 39.52422,9.86558 52.18319,-2.79339 12.68537,12.68537 38.92079,6.87309 52.20449,2.79294 l 0.0834,-0.027 c 0,0 4.80062,70.75603 -52.28788,70.75603 -57.08851,0 -52.28787,-70.75603 -52.28787,-70.75603 z"
       id="path1099"
       sodipodi:nodetypes="ccccscc"
       inkscape:label="mouth" /><path
       style="display:inline;fill:#dd3c87;fill-opacity:1;stroke:none;stroke-width:0.755906;stroke-linecap:round;stroke-linejoin:round;stroke-dasharray:none;stroke-opacity:1"
       d="m 387.52768,312.67498 c -4.0638,20.40721 -16.00647,46.02869 -50.35981,46.02869 -34.36327,0 -46.3029,-25.63628 -50.36333,-46.04637 l 0.70538,-0.27375 c 0,0 18.05239,-7.18111 49.65795,-7.18111 31.60557,0 49.65796,7.18111 49.65796,7.18111 z"
       id="path1210"
       sodipodi:nodetypes="csccscc"
       inkscape:label="tongue" /><path
       style="display:inline;fill:none;fill-opacity:1;stroke:#000000;stroke-width:3.77953;stroke-linecap:round;stroke-linejoin:round;stroke-dasharray:none;stroke-opacity:1"
       d="m 228.46631,199.85576 c 18.99132,-6.48423 50.38433,-8.69088 64.00534,3.73526 m 153.39779,-3.73526 c -18.99132,-6.48423 -50.38433,-8.69088 -64.00534,3.73526"
       id="path1277"
       sodipodi:nodetypes="cccc"
       inkscape:label="eyes" /><path
       d="m 306.79321,248.37306 c 0,-18.89765 60.74962,-18.90151 60.74962,0 0,18.90151 -60.74962,18.89765 -60.74962,0 z m -78.32676,-48.51771 c 18.99132,-6.48423 50.38432,-8.69088 64.00533,3.73526 m 153.39779,-3.73526 c -18.99133,-6.48423 -50.38432,-8.69088 -64.00534,3.73526 M 233.81092,91.53564 c 7.32722,-7.46341 18.27544,-5.34901 23.02391,2.56976 4.74849,7.91876 10.4914,28.92983 7.87331,36.62646 -2.61809,7.69664 -19.01752,9.65368 -34.81648,9.6264 -15.79897,-0.0273 -15.37748,-7.29831 -15.06318,-13.2096 0.3143,-5.9113 11.65522,-28.14961 18.98244,-35.61302 z m 206.71416,-0.7109 c -7.32723,-7.46341 -18.27544,-5.34901 -23.02391,2.56976 -4.7485,7.91877 -10.4914,28.92983 -7.87332,36.62647 2.61809,7.69663 19.01752,9.65367 34.81649,9.62639 15.79898,-0.0273 13.37748,-7.2983 13.06317,-13.2096 -0.3143,-5.91129 -9.65521,-28.14961 -16.98243,-35.61302 z M 276.88013,285.18125 c 0,0 42.91802,17.36985 60.28787,0 17.39882,17.39881 60.28787,0 60.28787,0 m -112.57574,2.76598 c 0,0 -4.80064,70.75603 52.28787,70.75603 57.0885,0 52.28787,-70.75603 52.28787,-70.75603 m -102.60724,24.81205 c 0,0 18.71382,-7.55725 50.31937,-7.55725 31.60557,0 50.32819,7.55725 50.32819,7.55725"
       style="display:inline;fill:none;fill-opacity:1;stroke:#000000;stroke-width:1.88976;stroke-linecap:round;stroke-linejoin:round;stroke-dasharray:none;stroke-opacity:1"
       id="path1079"
       sodipodi:nodetypes="sssccccssssssssssssccccsccsc"
       inkscape:label="face" /></g></svg>
